{
	"asset":{
		"generator":"Khronos glTF Blender I/O v4.0.44",
		"version":"2.0"
	},
	"scene":0,
	"scenes":[
		{
			"name":"Scene",
			"nodes":[
				0
			]
		}
	],
	"nodes":[
		{
			"mesh":0,
			"name":"Cube",
			"scale":[
				0.39156895875930786,
				0.06971930712461472,
				0.7262647151947021
			]
		}
	],
	"materials":[
		{
			"doubleSided":true,
			"name":"Material.001",
			"normalTexture":{
				"index":0,
				"scale":2
			},
			"pbrMetallicRoughness":{
				"baseColorFactor":[
					0.8001648187637329,
					0.5175771713256836,
					0.3803829848766327,
					1
				],
				"metallicRoughnessTexture":{
					"index":1
				}
			}
		}
	],
	"meshes":[
		{
			"name":"Cube.001",
			"primitives":[
				{
					"attributes":{
						"POSITION":0,
						"NORMAL":1,
						"TEXCOORD_0":2
					},
					"indices":3,
					"material":0
				}
			]
		}
	],
	"textures":[
		{
			"sampler":0,
			"source":0
		},
		{
			"sampler":0,
			"source":1
		}
	],
	"images":[
		{
			"mimeType":"image/jpeg",
			"name":"MetalCorrodedHeavy001_NRM_1K_METALNESS",
			"uri":"MetalCorrodedHeavy001_NRM_1K_METALNESS.jpg"
		},
		{
			"mimeType":"image/png",
			"name":"MetalCorrodedHeavy001_METALNESS_1K_METALNESS-MetalCorrodedHeavy",
			"uri":"MetalCorrodedHeavy001_METALNESS_1K_METALNESS-MetalCorrodedHeavy.png"
		}
	],
	"accessors":[
		{
			"bufferView":0,
			"componentType":5126,
			"count":86,
			"max":[
				1,
				1,
				1
			],
			"min":[
				-1,
				-1,
				-1
			],
			"type":"VEC3"
		},
		{
			"bufferView":1,
			"componentType":5126,
			"count":86,
			"type":"VEC3"
		},
		{
			"bufferView":2,
			"componentType":5126,
			"count":86,
			"type":"VEC2"
		},
		{
			"bufferView":3,
			"componentType":5123,
			"count":156,
			"type":"SCALAR"
		}
	],
	"bufferViews":[
		{
			"buffer":0,
			"byteLength":1032,
			"byteOffset":0,
			"target":34962
		},
		{
			"buffer":0,
			"byteLength":1032,
			"byteOffset":1032,
			"target":34962
		},
		{
			"buffer":0,
			"byteLength":688,
			"byteOffset":2064,
			"target":34962
		},
		{
			"buffer":0,
			"byteLength":312,
			"byteOffset":2752,
			"target":34963
		}
	],
	"samplers":[
		{
			"magFilter":9729,
			"minFilter":9987
		}
	],
	"buffers":[
		{
			"byteLength":3064,
			"uri":"empty_sign.bin"
		}
	]
}
